<svg xmlns="http://www.w3.org/2000/svg" viewBox="0 0 64 64">
  <rect width="64" height="64" rx="12" fill="#1C1917"/>
  <!-- Plate -->
  <ellipse cx="32" cy="38" rx="22" ry="16" fill="#292524"/>
  <ellipse cx="32" cy="38" rx="18" ry="13" fill="#44403C" stroke="#57534E" stroke-width="1"/>
  <!-- Fork -->
  <line x1="18" y1="12" x2="18" y2="30" stroke="#D6D3D1" stroke-width="2.5" stroke-linecap="round"/>
  <line x1="14" y1="12" x2="14" y2="22" stroke="#D6D3D1" stroke-width="2" stroke-linecap="round"/>
  <line x1="18" y1="12" x2="18" y2="22" stroke="#D6D3D1" stroke-width="2" stroke-linecap="round"/>
  <line x1="22" y1="12" x2="22" y2="22" stroke="#D6D3D1" stroke-width="2" stroke-linecap="round"/>
  <rect x="13" y="22" width="10" height="3" rx="1" fill="#D6D3D1"/>
  <line x1="18" y1="25" x2="18" y2="34" stroke="#D6D3D1" stroke-width="2.5" stroke-linecap="round"/>
  <!-- Knife -->
  <path d="M46 12 L48 12 L48 24 Q48 26 46 26 L46 12 Z" fill="#D6D3D1"/>
  <line x1="47" y1="26" x2="47" y2="34" stroke="#D6D3D1" stroke-width="2.5" stroke-linecap="round"/>
  <!-- Steam -->
  <path d="M28 22 Q26 18 28 14" fill="none" stroke="#A8A29E" stroke-width="1.5" stroke-linecap="round" opacity="0.6"/>
  <path d="M32 20 Q30 16 32 12" fill="none" stroke="#A8A29E" stroke-width="1.5" stroke-linecap="round" opacity="0.6"/>
  <path d="M36 22 Q34 18 36 14" fill="none" stroke="#A8A29E" stroke-width="1.5" stroke-linecap="round" opacity="0.6"/>
  <!-- Text -->
  <text x="32" y="55" text-anchor="middle" font-family="Georgia,serif" font-weight="bold" font-size="8" fill="#F59E0B">PryFry</text>
</svg>
